# xmcd CD database file
#
# Track frame offsets:
#	150
#	11761
#	26485
#	42087
#	58975
#	71663
#	84769
#	101065
#	117774
#	130941
#	152540
#	170787
#	186157
#	202579
#	218966
#	235573
#
# Disc length: 3348 seconds
#
# Revision: 0
# Processed by: cddbd v1.5.2PL0 Copyright (c) Steve Scherf et al.
# Submitted via: CDex 1.77
#
DISCID=d00d1210
DTITLE=Toby Keith - Greatest Hits: The Show Dog Years
DYEAR=2019
DGENRE=Country
TTITLE0=That's Country Bro
TTITLE1=Made In America
TTITLE2=Beers Ago
TTITLE3=Red Solo Cup
TTITLE4=American Ride
TTITLE5=Don't Let The Old Man In
TTITLE6=God Love Her
TTITLE7=Hope On The Rocks
TTITLE8=Trailerhood
TTITLE9=Cryin' For Me (Wayman's Song)
TTITLE10=She Never Cried In Front Of Me
TTITLE11=High Maintenance Woman
TTITLE12=Love Me If You Can
TTITLE13=Lost You Anyway
TTITLE14=Back In The 405
TTITLE15=American Ride (Official Remix)
EXTD=YEAR: 2019
EXTT0=
EXTT1=
EXTT2=
EXTT3=
EXTT4=
EXTT5=
EXTT6=
EXTT7=
EXTT8=
EXTT9=
EXTT10=
EXTT11=
EXTT12=
EXTT13=
EXTT14=
EXTT15=
PLAYORDER=
